<?xml version="1.0" encoding="utf-8"?>
<!-- Generator: Adobe Illustrator 26.2.0, SVG Export Plug-In . SVG Version: 6.00 Build 0)  -->
<svg version="1.1" id="Layer_1" xmlns="http://www.w3.org/2000/svg" xmlns:xlink="http://www.w3.org/1999/xlink" x="0px" y="0px"
	 viewBox="0 0 932 440.1" style="enable-background:new 0 0 932 440.1;" xml:space="preserve">
<style type="text/css">
	.st0{fill:url(#Path_576_00000141445325214315349880000012333080511099484043_);}
	.st1{fill:#BFCDF7;}
	.st2{fill:#7F9CEE;}
	.st3{opacity:5.000000e-02;fill:#54C1FB;enable-background:new    ;}
	.st4{fill:#CBCBCB;}
	.st5{fill:none;stroke:#7F9CEE;stroke-miterlimit:10;stroke-dasharray:2,2;}
</style>
<g id="Group_1208" transform="translate(0 -15.281)">
	
		<linearGradient id="Path_576_00000032620255251530201070000005587599040778369978_" gradientUnits="userSpaceOnUse" x1="286.1931" y1="269.9684" x2="286.1931" y2="268.8404" gradientTransform="matrix(931.961 0 0 -223.7173 -266254.8438 60660.4805)">
		<stop  offset="0" style="stop-color:#CBCBCB"/>
		<stop  offset="0.51" style="stop-color:#FFFFFF;stop-opacity:3.100000e-02"/>
		<stop  offset="1" style="stop-color:#FFFFFF;stop-opacity:0"/>
	</linearGradient>
	<path id="Path_576" style="fill:url(#Path_576_00000032620255251530201070000005587599040778369978_);" d="M479.2,232.1
		C243.4,224.4,44.1,321,0,455.4h932C877.8,333.2,696.9,239.2,479.2,232.1z"/>
	<g id="Group_1159" transform="translate(351 171.41)">
		<path id="Path_577" class="st1" d="M34.1,0L0,42.2l229.5-0.8L194.2,0L34.1,0z"/>
		<path id="Path_578" class="st2" d="M41.4,29.5L21.2,66.1H208l-20.5-36.6H41.4z"/>
		<path id="Rectangle_449" class="st3" d="M0.3,42.6h61.2c2.8,0,5.2,2.3,5.2,5.2c0,0,0,0,0,0v18.4l0,0H0.3l0,0V42.6L0.3,42.6z"/>
		<path id="Path_579" class="st1" d="M173.9,41.4c-6,0-10.9,4.9-10.9,10.9c0,0,0,0,0,0V54c0,6-4.9,10.9-10.9,10.9H77.5
			c-6,0-10.9-4.9-10.9-10.9v-1.7c-0.1-6-4.9-10.8-10.9-10.9H0.2V116c0,6.1,4.9,11,11,11c0,0,0,0,0,0h207.3c6.1,0,11-4.9,11-11l0,0
			V41.4H173.9z"/>
	</g>
	<g id="Group_1160" transform="translate(686.125 173.378)">
		<path id="Path_580" class="st4" d="M58.6,6.9c0-3.8-3.1-6.9-6.9-6.9s-6.9,3.1-6.9,6.9v29.4c0,0.2,0,0.4,0.1,0.7
			c-0.2,5.5-2.1,10.8-5.6,15.1V9.2C39.2,4.1,35.1,0,30,0.1c-5,0.1-9,4.1-9.1,9.1v108.7c-0.1,5.1,4,9.2,9.1,9.3
			c5.1,0.1,9.2-4,9.3-9.1c0-0.1,0-0.1,0-0.2v-56c3.5-1.1,19.7-6.9,19.3-25.4c0-0.1,0-0.1,0-0.2L58.6,6.9z"/>
		<path id="Path_581" class="st4" d="M13.8,64.5v-25c0-3.8-3.1-6.9-6.9-6.9S0,35.7,0,39.5v25c0,0.1,0,0.1,0,0.2
			c-0.5,20.9,20,25.7,20,25.7v-9.2c-5.3-5.6-6.2-12.8-6.3-16C13.8,65,13.8,64.8,13.8,64.5z"/>
	</g>
	<path id="Path_582" class="st4" d="M235.2,212.7c-2.3,0-4.1,1.8-4.1,4.1v12.7c-0.1,3.8-1.4,7.4-3.8,10.4v-24c0-2.6-2.2-4.8-4.9-4.7
		c-2.6,0-4.7,2.1-4.7,4.7v36.9c-2.2-3-3.4-6.6-3.4-10.3v-0.6c0-0.2,0-0.3,0-0.3h0v-11.3c0-2.3-1.8-4.1-4.1-4.1
		c-2.3,0-4.1,1.8-4.1,4.1l0,0v13.6c0,0.2,0,0.5,0.1,0.7v0c0,0,0,0.1,0,0.1c0.9,10.4,9.6,13.8,11.5,14.4v18.3c0,2.6,2.1,4.8,4.7,4.9
		c2.6,0,4.8-2.1,4.9-4.7c0,0,0-0.1,0-0.1v-31.5c0,0,11.2-2.9,11.9-15.1c0-0.2,0-0.3,0.1-0.5v-13.6
		C239.3,214.5,237.5,212.7,235.2,212.7z"/>
	<path id="Path_583" class="st5" d="M435.2,44.1c-16,5.8-28,28.2-25.8,45.4c0.9,5.8,10.9,29.1,25.8,35.8s25.4-14,24.9-27
		s-18.8-16.8-33.7-13s-34.4,25-34.4,47.4s17.9,75.8,43.3,93"/>
	<path id="Path_584" class="st4" d="M176,39.4h-8.8v-8.8h-6.5v8.8h-8.8v6.5h8.8v8.8h6.5v-8.8h8.8V39.4z"/>
	<path id="Path_585" class="st4" d="M240.6,98.8h-6.5v-6.5h-4.8v6.5h-6.5v4.8h6.5v6.5h4.8v-6.5h6.5V98.8z"/>
	<path id="Path_586" class="st4" d="M744.7,73.5h-12.5V61H723v12.5h-12.5v9.2H723v12.5h9.2V82.7h12.5V73.5z"/>
	<g id="Group_1161" transform="translate(445.313 15.281)">
		<circle id="Ellipse_118" class="st2" cx="5.5" cy="18.8" r="5.5"/>
		<circle id="Ellipse_119" class="st2" cx="16.8" cy="13.3" r="3.9"/>
		<path id="Path_587" class="st1" d="M20.7,22.5L20.7,22.5L20.7,22.5L20.7,22.5l-7.3-7.4L11,4l0,0c-0.4-2.6-2.8-4.3-5.4-3.9
			S1.2,2.9,1.6,5.5c0.2,1,0.6,1.9,1.4,2.6l0,0l7.5,8.4l2.1,9.6l0,0c0.2,2.6,2.4,4.6,5,4.4c2.6-0.2,4.6-2.4,4.4-5
			C22,24.3,21.5,23.3,20.7,22.5L20.7,22.5z"/>
	</g>
	<path id="Path_588" class="st4" d="M592.1,55.5c-25.5,0-46.2,17.8-46.2,39.7c0,6.9,2,13.6,5.8,19.3c-0.8,6.9-2.4,15.1-5.8,20.4
		c6.1-2.1,11.7-5.1,16.8-9.1c8.6,6,18.9,9.2,29.4,9.1c25.5,0,46.2-17.8,46.2-39.7S617.6,55.5,592.1,55.5z M576.8,102.7
		c-3.2,0-5.7-2.6-5.7-5.7s2.6-5.7,5.7-5.7s5.7,2.6,5.7,5.7l0,0C582.5,100.1,579.9,102.7,576.8,102.7z M592.1,102.7
		c-3.2,0-5.7-2.6-5.7-5.7s2.6-5.7,5.7-5.7s5.7,2.6,5.7,5.7l0,0C597.9,100.1,595.3,102.7,592.1,102.7z M607.5,102.7
		c-3.2,0-5.7-2.6-5.7-5.7s2.6-5.7,5.7-5.7s5.7,2.6,5.7,5.7l0,0C613.2,100.1,610.6,102.7,607.5,102.7L607.5,102.7z"/>
</g>
</svg>
