<svg id="Group_8" data-name="Group 8" xmlns="http://www.w3.org/2000/svg" xmlns:xlink="http://www.w3.org/1999/xlink" width="20.486" height="17.783" viewBox="0 0 20.486 17.783">
  <style>
    path {
      fill: #0E3BDD;
    }

    @media ( prefers-color-scheme: dark ) {
			path {
				fill: #00d8fc;
			}
		}
  </style>
  <defs>
    <clipPath id="clip-path">
      <rect id="Rectangle_87" data-name="Rectangle 87" width="20.486" height="17.783" fill="#00d8fc"/>
    </clipPath>
  </defs>
  <g id="Group_7" data-name="Group 7" transform="translate(0 0)" clip-path="url(#clip-path)">
    <path id="Path_16" data-name="Path 16" d="M6.293,17.774c-.2.043-.359-.161-.365-.357a24.452,24.452,0,0,0-.049-2.566c-.329.172-2.34,2.8-2.441,2.893-.02.018-.028.048-.056,0C3.247,17.49.149,12.162.025,11.9a.158.158,0,0,1,0-.173c.092-.17,4.907-8.463,5.1-8.846.086-.134.152-.34.346-.337.133,0,2.588,1.071,2.615,1.076.054.012.085-.017.07-.074C8.049,3.089,6.819.083,6.788.016c.066,0,4.572-.01,6.759-.012.119-.019.176.039.231.142.195.368,5.176,9.076,5.269,9.158a.827.827,0,0,1-.077.225c-.1.133-2.367,1.477-2.436,1.55a26.429,26.429,0,0,0,3.9.714c.068,0,.063.036.035.085-.076.133-3.34,5.852-3.4,5.885s-.173.011-.262.011c-1.734,0-8.742,0-10.513,0m6.062-5.849a.812.812,0,0,0,.8-.783c.075-.377-2-3.642-2.183-4.026a.881.881,0,0,0-.375-.381.828.828,0,0,0-1,.214c-.461.764-1.2,2.081-1.745,3-.1.169-.625,1.058-.5,1.39a.8.8,0,0,0,.783.584h4.217" transform="translate(0 0)"/>
  </g>
</svg>
