<?xml version="1.0" encoding="utf-8"?>
<!-- Generator: Adobe Illustrator 16.0.0, SVG Export Plug-In . SVG Version: 6.00 Build 0)  -->
<!DOCTYPE svg PUBLIC "-//W3C//DTD SVG 1.1//EN" "http://www.w3.org/Graphics/SVG/1.1/DTD/svg11.dtd">
<svg version="1.1" id="Layer_1" xmlns="http://www.w3.org/2000/svg" xmlns:xlink="http://www.w3.org/1999/xlink" x="0px" y="0px"
	 width="5078.032px" height="2172.87px" viewBox="0 0 5078.032 2172.87" enable-background="new 0 0 5078.032 2172.87"
	 xml:space="preserve">
<g display="none">
	<g id="_x33__1_" display="inline">
		<g id="_x32__3_">
			<g>
				
					<text transform="matrix(1 0 0 1 817.5977 1409.1729)" fill="#333333" font-family="'BauhausITCbyBT-Medium'" font-size="1029.3203">health</text>
			</g>
		</g>
		
			<text transform="matrix(1 0 0 1 3560.1934 1409.1738)" fill="#333333" font-family="'BauhausITCbyBT-Medium'" font-size="1029.3203">trip</text>
		
			<text transform="matrix(1 0 0 1 4024.6025 1943.0669)" fill="#333333" font-family="'BauhausITCbyBT-Medium'" font-size="486.9255">.com</text>
	</g>
	<linearGradient id="SVGID_1_" gradientUnits="userSpaceOnUse" x1="68.5137" y1="1108.5835" x2="1819.5176" y2="1108.5835">
		<stop  offset="0" style="stop-color:#43BEAC"/>
		<stop  offset="1" style="stop-color:#4E8FCC"/>
	</linearGradient>
	<path display="inline" fill-rule="evenodd" clip-rule="evenodd" fill="url(#SVGID_1_)" d="M1492.91,1735.781
		c-21.315,16.025-42.637,32.049-63.947,48.085c-29.172,21.936-58.331,43.923-87.416,65.988
		c-37.79,28.692-57.508,23.556-94.114-0.306c-115.64-75.364-219.98-165.024-328.956-248.719
		c-168.895-129.736-333.488-264.206-472.247-427.632C293.657,993.503,213.372,797.74,298.913,561.361
		c28.747-47.854,54.097-97.751,93.703-138.52c175.346-180.497,472.822-184.271,673.78-16.202
		c76.105,63.654,129.176,145.972,190.181,221.744c29.645,36.836,43.819,41.225,75.084,0.097
		c103.086-135.652,205.975-273.458,383.015-323.455c-127.274,4.735-244.884,41.112-350.588,105.125
		c-56.404,34.153-79.256,21.988-114.734-26.672C1084.578,157.622,860.784,55.409,583.839,104.531
		c-30.955,5.484-60.868,13.115-89.65,22.715c-19.171,6.407-37.864,13.685-56.005,21.785c-18.154,8.111-35.763,17.05-52.817,26.767
		C189.323,287.557,68.127,502.602,68.515,747.428c0.027,21.291,0.984,42.805,2.879,64.499c-0.491,6.271-0.699,12.482-0.671,18.654
		c0.136,30.89,6.33,60.764,14.724,90.215c3.347,11.779,7.057,23.495,10.863,35.183c71.851,220.572,222.726,384.935,387.112,538.618
		c243.258,227.453,521.918,410.3,781.719,616.92c27.548,21.895,42.374,13.689,65.21-3.872
		c122.402-94.032,246.491-185.86,369.002-279.713c40.066-30.704,80.228-61.302,120.164-92.151H1492.91z"/>
	<linearGradient id="SVGID_2_" gradientUnits="userSpaceOnUse" x1="1768.6016" y1="323.5483" x2="2284.7148" y2="323.5483">
		<stop  offset="0" style="stop-color:#43BEAC"/>
		<stop  offset="1" style="stop-color:#4E8FCC"/>
	</linearGradient>
	<path display="inline" fill-rule="evenodd" clip-rule="evenodd" fill="url(#SVGID_2_)" d="M2005.018,310.507
		c-10.886,70.906-13.419,101.974-23.519,167.755c-40.098-16.967-68.76-34.319-64.239-84.063c3.804-41.759-1.973-84.665-6.495-126.74
		c-1.329-12.293-10.525-26.143-20.188-34.682c-32.329-28.583-66.902-54.633-99.704-82.708c-8.045-6.887-12.657-17.79-22.272-31.848
		c22.413-1.22,38.597-5.374,53.24-2.27c41.199,8.729,81.54,21.53,122.704,30.442c16.029,3.467,34.722,5.021,49.841,0.132
		c38.33-12.396,76.837-26.028,112.476-44.545c43.971-22.849,77.281,0.591,119.478,16.11
		c-55.564,30.066-91.017,53.477-145.877,83.161c0,0,220.291,117.908,203.319,353.396
		C2283.782,554.647,2194.782,321.154,2005.018,310.507z"/>
</g>
<g>
	<g id="_x33__2_">
		<g id="_x32__1_">
			<g>
				<path fill="#333333" d="M878.327,689.673h88.52v273.801c40.143-38.085,84.402-57.643,136.896-57.643
					c119.398,0,193.508,81.317,193.508,232.628v270.713h-88.52v-285.124c0-84.405-42.201-131.754-117.34-131.754
					c-71.021,0-124.545,56.613-124.545,150.282v266.596h-88.52V689.673z"/>
				<path fill="#333333" d="M1631.771,1419.466c-44.26,0-87.49-12.352-124.545-34.997
					c-79.256-48.378-124.545-129.695-124.545-222.335c0-68.965,25.732-131.754,73.08-181.162
					c47.348-48.378,109.105-75.141,177.039-75.141c98.813,0,180.127,53.525,229.533,154.399l-323.199,179.103l-37.055-66.906
					l239.826-133.813c-29.85-32.938-66.904-49.407-110.135-49.407c-87.49,0-157.482,73.082-157.482,171.897
					c0,97.786,71.021,171.897,157.482,171.897c82.344,0,144.102-57.642,158.512-155.428l89.549,13.381
					C1855.128,1334.032,1757.345,1419.466,1631.771,1419.466z"/>
				<path fill="#333333" d="M2347.125,1163.164c0-104.991-65.875-172.927-157.482-172.927s-158.512,68.965-158.512,169.839
					c0,102.933,68.963,173.956,162.629,173.956c42.201,0,82.344-14.41,123.516-45.29v94.698
					c-40.143,22.646-84.402,33.968-133.809,33.968c-47.348,0-95.725-15.44-132.779-41.173
					c-71.021-49.408-109.105-125.578-109.105-214.1c0-149.252,104.988-255.273,247.031-255.273
					c94.695,0,178.068,50.438,220.27,133.813c25.732,50.437,26.762,101.903,26.762,161.604v206.895h-88.52V1163.164z"/>
				<path fill="#333333" d="M2548.865,689.673h88.52v719.5h-88.52V689.673z"/>
				<path fill="#333333" d="M2841.181,785.4v130.725h149.248V999.5h-149.248v211.012c0,79.258,37.055,114.255,121.457,114.255
					h27.791v84.405h-28.82c-138.955,0-208.947-60.73-208.947-183.22V785.4H2841.181z"/>
				<path fill="#333333" d="M3083.053,689.673h88.52v273.801c40.143-38.085,84.402-57.643,136.896-57.643
					c119.398,0,193.508,81.317,193.508,232.628v270.713h-88.52v-285.124c0-84.405-42.201-131.754-117.34-131.754
					c-71.021,0-124.545,56.613-124.545,150.282v266.596h-88.52V689.673z"/>
			</g>
		</g>
		<g>
			<path fill="#333333" d="M3703.266,785.401v130.725h149.248v83.375h-149.248v211.012c0,79.258,37.055,114.255,121.457,114.255
				h27.791v84.405h-28.82c-138.955,0-208.947-60.73-208.947-183.22V785.401H3703.266z"/>
			<path fill="#333333" d="M3944.108,916.126h81.313v73.083c31.909-60.73,84.403-82.347,169.835-82.347c7.206,0,14.41,0,22.645,0
				v85.435c-4.117,0-9.265,0-13.381,0c-122.486,0-171.893,55.583-171.893,184.25v232.628h-88.52V916.126z"/>
			<path fill="#333333" d="M4322.88,722.612c30.879,0,53.522,23.675,53.522,53.525c0,30.88-23.673,54.555-53.522,54.555
				s-53.524-24.704-53.524-54.555C4269.355,746.287,4293.03,722.612,4322.88,722.612z M4278.619,916.126h88.52v493.048h-88.52
				V916.126z"/>
			<path fill="#333333" d="M4480.357,1202.279c0-59.701,2.059-111.167,26.762-161.604
				c41.172-83.375,124.545-133.813,221.299-133.813c142.043,0,247.031,106.021,247.031,255.273
				c0,66.906-23.674,129.695-66.904,177.044c-45.289,50.437-110.135,78.229-176.01,78.229c-49.406,0-93.666-11.323-133.809-33.968
				v-94.698c41.172,30.88,82.344,45.29,124.545,45.29c93.666,0,162.629-71.023,162.629-173.956
				c0-100.874-67.934-169.839-159.541-169.839s-157.482,67.936-157.482,172.927v465.256h-88.52V1202.279z"/>
		</g>
		<g>
			<path fill="#333333" d="M4090.825,1890.479c16.068,0,28.241,12.66,28.241,28.242s-12.66,27.755-28.241,27.755
				c-15.582,0-28.241-12.173-28.241-27.755S4074.757,1890.479,4090.825,1890.479z"/>
			<path fill="#333333" d="M4311.394,1749.758c-60.865,0-96.41,32.138-96.41,76.934c0,44.797,36.032,76.934,96.41,76.934h18.017
				v39.441h-20.938c-86.673,0-136.826-49.179-136.826-116.861c0-38.467,18.503-72.552,51.127-94.95
				c26.781-18.016,53.075-21.425,85.699-21.425h20.938v39.928H4311.394z"/>
			<path fill="#333333" d="M4393.674,1740.507c22.398-22.885,51.127-35.059,82.777-35.059c31.649,0,60.865,12.173,83.264,35.059
				s34.571,53.075,34.571,85.699c0,32.624-12.173,63.3-34.571,86.185s-51.614,35.059-83.264,35.059
				c-31.65,0-60.379-12.173-82.777-35.059c-22.885-23.372-35.059-53.562-35.059-86.185
				C4358.615,1793.582,4370.789,1763.879,4393.674,1740.507z M4476.451,1907.035c40.901,0,74.499-35.545,74.499-81.316
				c0-45.771-33.598-80.829-74.499-80.829s-74.5,35.059-74.5,80.829C4401.951,1871.489,4435.55,1907.035,4476.451,1907.035z"/>
			<path fill="#333333" d="M4634.205,1808.189c0-65.734,37.98-102.741,92.029-102.741c29.215,0,54.048,12.66,71.577,36.032
				c18.504-23.859,42.85-36.032,71.577-36.032c54.049,0,92.029,37.493,92.029,102.741v134.878h-41.389v-142.668
				c0-33.111-20.938-54.536-50.641-54.536c-29.701,0-50.639,21.425-50.639,54.536v142.668h-41.389v-142.668
				c0-33.111-21.425-54.536-51.127-54.536s-50.641,21.425-50.641,54.536v142.668h-41.389V1808.189z"/>
		</g>
	</g>
	<linearGradient id="SVGID_3_" gradientUnits="userSpaceOnUse" x1="68.5137" y1="1108.5835" x2="1819.5176" y2="1108.5835">
		<stop  offset="0" style="stop-color:#43BEAC"/>
		<stop  offset="1" style="stop-color:#4E8FCC"/>
	</linearGradient>
	<path fill-rule="evenodd" clip-rule="evenodd" fill="url(#SVGID_3_)" d="M1492.91,1735.781
		c-21.315,16.025-42.637,32.049-63.947,48.085c-29.172,21.936-58.331,43.923-87.416,65.988
		c-37.79,28.692-57.508,23.556-94.114-0.306c-115.64-75.364-219.98-165.024-328.956-248.719
		c-168.895-129.736-333.488-264.206-472.247-427.632C293.657,993.503,213.372,797.74,298.913,561.361
		c28.747-47.854,54.097-97.751,93.703-138.52c175.346-180.497,472.822-184.271,673.78-16.202
		c76.105,63.654,129.176,145.972,190.181,221.744c29.645,36.836,43.819,41.225,75.084,0.097
		c103.086-135.652,205.975-273.458,383.015-323.455c-127.274,4.735-244.884,41.112-350.588,105.125
		c-56.404,34.153-79.256,21.988-114.734-26.672C1084.578,157.622,860.784,55.409,583.839,104.531
		c-30.955,5.484-60.868,13.115-89.65,22.715c-19.171,6.407-37.864,13.685-56.005,21.785c-18.154,8.111-35.763,17.05-52.817,26.767
		C189.323,287.557,68.127,502.602,68.515,747.428c0.027,21.291,0.984,42.805,2.879,64.499c-0.491,6.271-0.699,12.482-0.671,18.654
		c0.136,30.89,6.33,60.764,14.724,90.215c3.347,11.779,7.057,23.495,10.863,35.183c71.851,220.572,222.726,384.935,387.112,538.618
		c243.258,227.453,521.918,410.3,781.719,616.92c27.548,21.895,42.374,13.689,65.21-3.872
		c122.402-94.032,246.491-185.86,369.002-279.713c40.066-30.704,80.228-61.302,120.164-92.151H1492.91z"/>
	<linearGradient id="SVGID_4_" gradientUnits="userSpaceOnUse" x1="1768.6016" y1="323.5483" x2="2284.7148" y2="323.5483">
		<stop  offset="0" style="stop-color:#43BEAC"/>
		<stop  offset="1" style="stop-color:#4E8FCC"/>
	</linearGradient>
	<path fill-rule="evenodd" clip-rule="evenodd" fill="url(#SVGID_4_)" d="M2005.018,310.507
		c-10.886,70.906-13.419,101.974-23.519,167.755c-40.098-16.967-68.76-34.319-64.239-84.063c3.804-41.759-1.973-84.665-6.495-126.74
		c-1.329-12.293-10.525-26.143-20.188-34.682c-32.329-28.583-66.902-54.633-99.704-82.708c-8.045-6.887-12.657-17.79-22.272-31.848
		c22.413-1.22,38.597-5.374,53.24-2.27c41.199,8.729,81.54,21.53,122.704,30.442c16.029,3.467,34.722,5.021,49.841,0.132
		c38.33-12.396,76.837-26.028,112.476-44.545c43.971-22.849,77.281,0.591,119.478,16.11
		c-55.564,30.066-91.017,53.477-145.877,83.161c0,0,220.291,117.908,203.319,353.396
		C2283.782,554.647,2194.782,321.154,2005.018,310.507z"/>
</g>
</svg>
